<mxfile host="app.diagrams.net" modified="2022-08-23T14:19:15.870Z" agent="5.0 (X11)" etag="AshT3lCAgl_rcjfK7MJ6" version="20.2.6" type="github">
  <diagram id="olTcYtLL-F0ZYfqwLzHk" name="Page-1">
    <mxGraphModel dx="1673" dy="899" grid="1" gridSize="10" guides="1" tooltips="1" connect="1" arrows="1" fold="1" page="1" pageScale="1" pageWidth="1100" pageHeight="850" math="0" shadow="0">
      <root>
        <mxCell id="0" />
        <mxCell id="1" parent="0" />
        <mxCell id="jxMrgidw5v09EgPEdcY5-17" value="ElevatedX server" style="swimlane;" vertex="1" parent="1">
          <mxGeometry x="60" y="225" width="200" height="200" as="geometry" />
        </mxCell>
        <mxCell id="jxMrgidw5v09EgPEdcY5-20" value="ElX db" style="shape=cylinder3;whiteSpace=wrap;html=1;boundedLbl=1;backgroundOutline=1;size=15;" vertex="1" parent="jxMrgidw5v09EgPEdcY5-17">
          <mxGeometry x="20" y="120" width="50" height="70" as="geometry" />
        </mxCell>
        <mxCell id="jxMrgidw5v09EgPEdcY5-27" value="&lt;div&gt;Apache + PHP&lt;/div&gt;&lt;div&gt;ElevatedX App&lt;br&gt;&lt;/div&gt;" style="shape=process;whiteSpace=wrap;html=1;backgroundOutline=1;" vertex="1" parent="jxMrgidw5v09EgPEdcY5-17">
          <mxGeometry x="70" y="45" width="120" height="60" as="geometry" />
        </mxCell>
        <mxCell id="jxMrgidw5v09EgPEdcY5-57" value="" style="endArrow=classic;html=1;rounded=0;exitX=0.5;exitY=1;exitDx=0;exitDy=0;entryX=1;entryY=0.5;entryDx=0;entryDy=0;entryPerimeter=0;" edge="1" parent="jxMrgidw5v09EgPEdcY5-17" source="jxMrgidw5v09EgPEdcY5-27" target="jxMrgidw5v09EgPEdcY5-20">
          <mxGeometry width="50" height="50" relative="1" as="geometry">
            <mxPoint x="340" y="325" as="sourcePoint" />
            <mxPoint x="390" y="275" as="targetPoint" />
            <Array as="points">
              <mxPoint x="120" y="155" />
            </Array>
          </mxGeometry>
        </mxCell>
        <mxCell id="jxMrgidw5v09EgPEdcY5-19" value="NATS server" style="swimlane;" vertex="1" parent="1">
          <mxGeometry x="690" y="225" width="200" height="200" as="geometry" />
        </mxCell>
        <mxCell id="jxMrgidw5v09EgPEdcY5-24" value="NATS db" style="shape=cylinder3;whiteSpace=wrap;html=1;boundedLbl=1;backgroundOutline=1;size=15;" vertex="1" parent="jxMrgidw5v09EgPEdcY5-19">
          <mxGeometry x="10" y="120" width="50" height="70" as="geometry" />
        </mxCell>
        <mxCell id="jxMrgidw5v09EgPEdcY5-30" value="&lt;div&gt;Apache + PHP&lt;/div&gt;&lt;div&gt;NATS App&lt;br&gt;&lt;/div&gt;" style="shape=process;whiteSpace=wrap;html=1;backgroundOutline=1;" vertex="1" parent="jxMrgidw5v09EgPEdcY5-19">
          <mxGeometry x="70" y="45" width="120" height="60" as="geometry" />
        </mxCell>
        <mxCell id="jxMrgidw5v09EgPEdcY5-68" value="" style="endArrow=classic;html=1;rounded=0;fontColor=#0000FF;exitX=0.5;exitY=1;exitDx=0;exitDy=0;entryX=1;entryY=0.5;entryDx=0;entryDy=0;entryPerimeter=0;" edge="1" parent="jxMrgidw5v09EgPEdcY5-19" source="jxMrgidw5v09EgPEdcY5-30" target="jxMrgidw5v09EgPEdcY5-24">
          <mxGeometry width="50" height="50" relative="1" as="geometry">
            <mxPoint x="-290" y="445" as="sourcePoint" />
            <mxPoint x="-240" y="395" as="targetPoint" />
            <Array as="points">
              <mxPoint x="120" y="155" />
            </Array>
          </mxGeometry>
        </mxCell>
        <mxCell id="jxMrgidw5v09EgPEdcY5-21" value="End User" style="shape=umlActor;verticalLabelPosition=bottom;verticalAlign=top;html=1;outlineConnect=0;" vertex="1" parent="1">
          <mxGeometry x="80" y="40" width="30" height="60" as="geometry" />
        </mxCell>
        <mxCell id="jxMrgidw5v09EgPEdcY5-29" value="Biller / Payment provider" style="ellipse;whiteSpace=wrap;html=1;aspect=fixed;" vertex="1" parent="1">
          <mxGeometry x="980" y="275" width="80" height="80" as="geometry" />
        </mxCell>
        <mxCell id="jxMrgidw5v09EgPEdcY5-31" value="" style="endArrow=classic;html=1;rounded=0;entryX=0.5;entryY=0;entryDx=0;entryDy=0;" edge="1" parent="1" source="jxMrgidw5v09EgPEdcY5-21" target="jxMrgidw5v09EgPEdcY5-27">
          <mxGeometry width="50" height="50" relative="1" as="geometry">
            <mxPoint x="150" y="80" as="sourcePoint" />
            <mxPoint x="450" y="410" as="targetPoint" />
            <Array as="points">
              <mxPoint x="170" y="110" />
            </Array>
          </mxGeometry>
        </mxCell>
        <mxCell id="jxMrgidw5v09EgPEdcY5-33" value="" style="endArrow=none;dashed=1;html=1;dashPattern=1 3;strokeWidth=2;rounded=0;exitX=0.75;exitY=0.1;exitDx=0;exitDy=0;exitPerimeter=0;entryX=0.5;entryY=0;entryDx=0;entryDy=0;" edge="1" parent="1" source="jxMrgidw5v09EgPEdcY5-21" target="jxMrgidw5v09EgPEdcY5-29">
          <mxGeometry width="50" height="50" relative="1" as="geometry">
            <mxPoint x="400" y="440" as="sourcePoint" />
            <mxPoint x="450" y="390" as="targetPoint" />
            <Array as="points">
              <mxPoint x="940" y="90" />
            </Array>
          </mxGeometry>
        </mxCell>
        <mxCell id="jxMrgidw5v09EgPEdcY5-34" value="Payment" style="text;html=1;strokeColor=none;fillColor=none;align=center;verticalAlign=middle;whiteSpace=wrap;rounded=0;" vertex="1" parent="1">
          <mxGeometry x="570" y="30" width="60" height="30" as="geometry" />
        </mxCell>
        <mxCell id="jxMrgidw5v09EgPEdcY5-38" value="" style="endArrow=classic;html=1;rounded=0;exitX=1;exitY=0.3333333333333333;exitDx=0;exitDy=0;exitPerimeter=0;entryX=0.5;entryY=0;entryDx=0;entryDy=0;" edge="1" parent="1" source="jxMrgidw5v09EgPEdcY5-21" target="jxMrgidw5v09EgPEdcY5-30">
          <mxGeometry width="50" height="50" relative="1" as="geometry">
            <mxPoint x="400" y="440" as="sourcePoint" />
            <mxPoint x="820" y="150" as="targetPoint" />
            <Array as="points">
              <mxPoint x="640" y="130" />
            </Array>
          </mxGeometry>
        </mxCell>
        <mxCell id="jxMrgidw5v09EgPEdcY5-39" value="Registration" style="text;html=1;strokeColor=none;fillColor=none;align=center;verticalAlign=middle;whiteSpace=wrap;rounded=0;" vertex="1" parent="1">
          <mxGeometry x="540" y="90" width="60" height="30" as="geometry" />
        </mxCell>
        <mxCell id="jxMrgidw5v09EgPEdcY5-40" value="ElevatedX server" style="swimlane;" vertex="1" parent="1">
          <mxGeometry x="60" y="785" width="200" height="200" as="geometry" />
        </mxCell>
        <mxCell id="jxMrgidw5v09EgPEdcY5-41" value="ElX db" style="shape=cylinder3;whiteSpace=wrap;html=1;boundedLbl=1;backgroundOutline=1;size=15;" vertex="1" parent="jxMrgidw5v09EgPEdcY5-40">
          <mxGeometry x="20" y="120" width="50" height="70" as="geometry" />
        </mxCell>
        <mxCell id="jxMrgidw5v09EgPEdcY5-42" value="&lt;div&gt;Apache + PHP&lt;/div&gt;&lt;div&gt;ElevatedX App&lt;br&gt;&lt;/div&gt;" style="shape=process;whiteSpace=wrap;html=1;backgroundOutline=1;" vertex="1" parent="jxMrgidw5v09EgPEdcY5-40">
          <mxGeometry x="70" y="45" width="120" height="60" as="geometry" />
        </mxCell>
        <mxCell id="jxMrgidw5v09EgPEdcY5-63" value="" style="endArrow=classic;html=1;rounded=0;entryX=1;entryY=0.5;entryDx=0;entryDy=0;entryPerimeter=0;" edge="1" parent="jxMrgidw5v09EgPEdcY5-40" source="jxMrgidw5v09EgPEdcY5-42" target="jxMrgidw5v09EgPEdcY5-41">
          <mxGeometry width="50" height="50" relative="1" as="geometry">
            <mxPoint x="140" y="-414.9999999999998" as="sourcePoint" />
            <mxPoint x="80" y="-365.0000000000002" as="targetPoint" />
            <Array as="points">
              <mxPoint x="120" y="155" />
            </Array>
          </mxGeometry>
        </mxCell>
        <mxCell id="jxMrgidw5v09EgPEdcY5-43" value="NATS server" style="swimlane;" vertex="1" parent="1">
          <mxGeometry x="690" y="785" width="200" height="200" as="geometry" />
        </mxCell>
        <mxCell id="jxMrgidw5v09EgPEdcY5-44" value="NATS db" style="shape=cylinder3;whiteSpace=wrap;html=1;boundedLbl=1;backgroundOutline=1;size=15;" vertex="1" parent="jxMrgidw5v09EgPEdcY5-43">
          <mxGeometry x="10" y="120" width="50" height="70" as="geometry" />
        </mxCell>
        <mxCell id="jxMrgidw5v09EgPEdcY5-45" value="&lt;div&gt;Apache + PHP&lt;/div&gt;&lt;div&gt;NATS App&lt;br&gt;&lt;/div&gt;" style="shape=process;whiteSpace=wrap;html=1;backgroundOutline=1;" vertex="1" parent="jxMrgidw5v09EgPEdcY5-43">
          <mxGeometry x="70" y="45" width="120" height="60" as="geometry" />
        </mxCell>
        <mxCell id="jxMrgidw5v09EgPEdcY5-69" value="" style="endArrow=classic;html=1;rounded=0;fontColor=#0000FF;exitX=0.5;exitY=1;exitDx=0;exitDy=0;entryX=1;entryY=0.5;entryDx=0;entryDy=0;entryPerimeter=0;" edge="1" parent="jxMrgidw5v09EgPEdcY5-43" source="jxMrgidw5v09EgPEdcY5-45" target="jxMrgidw5v09EgPEdcY5-44">
          <mxGeometry width="50" height="50" relative="1" as="geometry">
            <mxPoint x="-290" y="-115" as="sourcePoint" />
            <mxPoint x="-240" y="-165" as="targetPoint" />
            <Array as="points">
              <mxPoint x="120" y="155" />
            </Array>
          </mxGeometry>
        </mxCell>
        <mxCell id="jxMrgidw5v09EgPEdcY5-46" value="End User" style="shape=umlActor;verticalLabelPosition=bottom;verticalAlign=top;html=1;outlineConnect=0;" vertex="1" parent="1">
          <mxGeometry x="80" y="600" width="30" height="60" as="geometry" />
        </mxCell>
        <mxCell id="jxMrgidw5v09EgPEdcY5-47" value="Thirsty APP server" style="swimlane;fillColor=#dae8fc;strokeColor=#6c8ebf;" vertex="1" parent="1">
          <mxGeometry x="390" y="785" width="200" height="255" as="geometry" />
        </mxCell>
        <mxCell id="jxMrgidw5v09EgPEdcY5-48" value="ReactJs&lt;br&gt;SSR front" style="shape=process;whiteSpace=wrap;html=1;backgroundOutline=1;fillColor=#d5e8d4;strokeColor=#82b366;" vertex="1" parent="jxMrgidw5v09EgPEdcY5-47">
          <mxGeometry x="60" y="45" width="120" height="60" as="geometry" />
        </mxCell>
        <mxCell id="jxMrgidw5v09EgPEdcY5-49" value="&lt;div&gt;Nginx + PHP&lt;/div&gt;&lt;div&gt;Laravel backend&lt;br&gt;&lt;/div&gt;" style="shape=process;whiteSpace=wrap;html=1;backgroundOutline=1;fillColor=#dae8fc;strokeColor=#6c8ebf;" vertex="1" parent="jxMrgidw5v09EgPEdcY5-47">
          <mxGeometry x="20" y="165" width="120" height="60" as="geometry" />
        </mxCell>
        <mxCell id="jxMrgidw5v09EgPEdcY5-65" value="" style="endArrow=classic;html=1;rounded=0;" edge="1" parent="jxMrgidw5v09EgPEdcY5-47" source="jxMrgidw5v09EgPEdcY5-48" target="jxMrgidw5v09EgPEdcY5-49">
          <mxGeometry width="50" height="50" relative="1" as="geometry">
            <mxPoint x="10" y="-105" as="sourcePoint" />
            <mxPoint x="60" y="-155" as="targetPoint" />
          </mxGeometry>
        </mxCell>
        <mxCell id="jxMrgidw5v09EgPEdcY5-50" value="Biller / Payment provider" style="ellipse;whiteSpace=wrap;html=1;aspect=fixed;" vertex="1" parent="1">
          <mxGeometry x="980" y="835" width="80" height="80" as="geometry" />
        </mxCell>
        <mxCell id="jxMrgidw5v09EgPEdcY5-51" value="" style="endArrow=classic;html=1;rounded=0;entryX=0.5;entryY=0;entryDx=0;entryDy=0;" edge="1" parent="1" source="jxMrgidw5v09EgPEdcY5-46" target="jxMrgidw5v09EgPEdcY5-48">
          <mxGeometry width="50" height="50" relative="1" as="geometry">
            <mxPoint x="150" y="640" as="sourcePoint" />
            <mxPoint x="450" y="970" as="targetPoint" />
            <Array as="points">
              <mxPoint x="480" y="750" />
            </Array>
          </mxGeometry>
        </mxCell>
        <mxCell id="jxMrgidw5v09EgPEdcY5-52" value="" style="endArrow=none;dashed=1;html=1;dashPattern=1 3;strokeWidth=2;rounded=0;exitX=0.75;exitY=0.1;exitDx=0;exitDy=0;exitPerimeter=0;entryX=0.5;entryY=0;entryDx=0;entryDy=0;" edge="1" parent="1" source="jxMrgidw5v09EgPEdcY5-46" target="jxMrgidw5v09EgPEdcY5-50">
          <mxGeometry width="50" height="50" relative="1" as="geometry">
            <mxPoint x="400" y="1000" as="sourcePoint" />
            <mxPoint x="450" y="950" as="targetPoint" />
            <Array as="points">
              <mxPoint x="940" y="650" />
            </Array>
          </mxGeometry>
        </mxCell>
        <mxCell id="jxMrgidw5v09EgPEdcY5-53" value="Payment" style="text;html=1;strokeColor=none;fillColor=none;align=center;verticalAlign=middle;whiteSpace=wrap;rounded=0;" vertex="1" parent="1">
          <mxGeometry x="570" y="590" width="60" height="30" as="geometry" />
        </mxCell>
        <mxCell id="jxMrgidw5v09EgPEdcY5-54" value="" style="endArrow=classic;html=1;rounded=0;exitX=1;exitY=0.3333333333333333;exitDx=0;exitDy=0;exitPerimeter=0;entryX=0.5;entryY=0;entryDx=0;entryDy=0;" edge="1" parent="1" source="jxMrgidw5v09EgPEdcY5-46" target="jxMrgidw5v09EgPEdcY5-43">
          <mxGeometry width="50" height="50" relative="1" as="geometry">
            <mxPoint x="400" y="1000" as="sourcePoint" />
            <mxPoint x="820" y="710" as="targetPoint" />
            <Array as="points">
              <mxPoint x="640" y="690" />
            </Array>
          </mxGeometry>
        </mxCell>
        <mxCell id="jxMrgidw5v09EgPEdcY5-55" value="Registration" style="text;html=1;strokeColor=none;fillColor=none;align=center;verticalAlign=middle;whiteSpace=wrap;rounded=0;" vertex="1" parent="1">
          <mxGeometry x="540" y="650" width="60" height="30" as="geometry" />
        </mxCell>
        <mxCell id="jxMrgidw5v09EgPEdcY5-56" value="Content browsing and authentication" style="text;html=1;strokeColor=none;fillColor=none;align=center;verticalAlign=middle;whiteSpace=wrap;rounded=0;" vertex="1" parent="1">
          <mxGeometry x="190" y="140" width="60" height="30" as="geometry" />
        </mxCell>
        <mxCell id="jxMrgidw5v09EgPEdcY5-58" value="" style="endArrow=classic;html=1;rounded=0;exitX=1;exitY=0.5;exitDx=0;exitDy=0;entryX=0;entryY=0.5;entryDx=0;entryDy=0;" edge="1" parent="1" source="jxMrgidw5v09EgPEdcY5-27" target="jxMrgidw5v09EgPEdcY5-30">
          <mxGeometry width="50" height="50" relative="1" as="geometry">
            <mxPoint x="400" y="550" as="sourcePoint" />
            <mxPoint x="450" y="500" as="targetPoint" />
          </mxGeometry>
        </mxCell>
        <mxCell id="jxMrgidw5v09EgPEdcY5-59" value="NATS API" style="text;html=1;strokeColor=none;fillColor=none;align=center;verticalAlign=middle;whiteSpace=wrap;rounded=0;" vertex="1" parent="1">
          <mxGeometry x="430" y="275" width="60" height="30" as="geometry" />
        </mxCell>
        <mxCell id="jxMrgidw5v09EgPEdcY5-60" value="Content browsing and authentication" style="text;html=1;strokeColor=none;fillColor=none;align=center;verticalAlign=middle;whiteSpace=wrap;rounded=0;" vertex="1" parent="1">
          <mxGeometry x="290" y="720" width="60" height="30" as="geometry" />
        </mxCell>
        <mxCell id="jxMrgidw5v09EgPEdcY5-64" value="" style="endArrow=classic;html=1;rounded=0;exitX=0;exitY=0.5;exitDx=0;exitDy=0;entryX=1;entryY=1;entryDx=0;entryDy=-15;entryPerimeter=0;" edge="1" parent="1" source="jxMrgidw5v09EgPEdcY5-49" target="jxMrgidw5v09EgPEdcY5-41">
          <mxGeometry width="50" height="50" relative="1" as="geometry">
            <mxPoint x="400" y="680" as="sourcePoint" />
            <mxPoint x="450" y="630" as="targetPoint" />
            <Array as="points">
              <mxPoint x="340" y="960" />
            </Array>
          </mxGeometry>
        </mxCell>
        <mxCell id="jxMrgidw5v09EgPEdcY5-66" value="STAGE 1" style="text;html=1;strokeColor=none;fillColor=none;align=center;verticalAlign=middle;whiteSpace=wrap;rounded=0;fontColor=#0000FF;fontStyle=1" vertex="1" parent="1">
          <mxGeometry x="280" y="540" width="60" height="30" as="geometry" />
        </mxCell>
        <mxCell id="jxMrgidw5v09EgPEdcY5-67" value="NOW" style="text;html=1;strokeColor=none;fillColor=none;align=center;verticalAlign=middle;whiteSpace=wrap;rounded=0;fontStyle=1;fontColor=#0000FF;" vertex="1" parent="1">
          <mxGeometry x="270" y="10" width="60" height="30" as="geometry" />
        </mxCell>
        <mxCell id="jxMrgidw5v09EgPEdcY5-71" value="SQL Query" style="text;html=1;strokeColor=none;fillColor=none;align=center;verticalAlign=middle;whiteSpace=wrap;rounded=0;fontColor=#000000;" vertex="1" parent="1">
          <mxGeometry x="270" y="930" width="70" height="30" as="geometry" />
        </mxCell>
        <mxCell id="jxMrgidw5v09EgPEdcY5-72" value="" style="endArrow=classic;html=1;rounded=0;fontColor=#000000;exitX=1;exitY=0.5;exitDx=0;exitDy=0;entryX=0;entryY=0;entryDx=0;entryDy=45;entryPerimeter=0;" edge="1" parent="1" source="jxMrgidw5v09EgPEdcY5-49" target="jxMrgidw5v09EgPEdcY5-44">
          <mxGeometry width="50" height="50" relative="1" as="geometry">
            <mxPoint x="400" y="710" as="sourcePoint" />
            <mxPoint x="450" y="660" as="targetPoint" />
            <Array as="points">
              <mxPoint x="670" y="980" />
            </Array>
          </mxGeometry>
        </mxCell>
        <mxCell id="jxMrgidw5v09EgPEdcY5-73" value="Authentication" style="text;html=1;strokeColor=none;fillColor=none;align=center;verticalAlign=middle;whiteSpace=wrap;rounded=0;fontColor=#000000;" vertex="1" parent="1">
          <mxGeometry x="590" y="980" width="60" height="30" as="geometry" />
        </mxCell>
        <mxCell id="jxMrgidw5v09EgPEdcY5-74" value="" style="endArrow=classic;html=1;rounded=0;fontColor=#000000;exitX=1;exitY=0.25;exitDx=0;exitDy=0;entryX=0;entryY=0.5;entryDx=0;entryDy=0;" edge="1" parent="1" source="jxMrgidw5v09EgPEdcY5-49" target="jxMrgidw5v09EgPEdcY5-45">
          <mxGeometry width="50" height="50" relative="1" as="geometry">
            <mxPoint x="400" y="780" as="sourcePoint" />
            <mxPoint x="450" y="730" as="targetPoint" />
            <Array as="points">
              <mxPoint x="670" y="860" />
            </Array>
          </mxGeometry>
        </mxCell>
        <mxCell id="jxMrgidw5v09EgPEdcY5-75" value="NATS API" style="text;html=1;strokeColor=none;fillColor=none;align=center;verticalAlign=middle;whiteSpace=wrap;rounded=0;" vertex="1" parent="1">
          <mxGeometry x="620" y="830" width="60" height="30" as="geometry" />
        </mxCell>
      </root>
    </mxGraphModel>
  </diagram>
</mxfile>
